<mxfile host="app.diagrams.net" modified="2021-09-01T14:09:14.742Z" agent="5.0 (Windows NT 10.0; Win64; x64) AppleWebKit/537.36 (KHTML, like Gecko) Chrome/92.0.4515.159 Safari/537.36" etag="PAK_IxDRL-Qlvc9PTCyJ" version="15.0.4" type="github">
  <diagram id="2RU3fEVLsrUB0o2Tr9gO" name="Page-1">
    <mxGraphModel dx="1021" dy="567" grid="1" gridSize="10" guides="1" tooltips="1" connect="1" arrows="1" fold="1" page="1" pageScale="1" pageWidth="827" pageHeight="1169" math="0" shadow="0">
      <root>
        <mxCell id="0" />
        <mxCell id="1" parent="0" />
        <mxCell id="YrsGiOxKX0NgvEgix6KA-1" value="&lt;b&gt;&lt;font style=&quot;font-size: 20px&quot;&gt;INÍCIO&lt;/font&gt;&lt;/b&gt;" style="ellipse;whiteSpace=wrap;html=1;" vertex="1" parent="1">
          <mxGeometry x="80" y="40" width="120" height="80" as="geometry" />
        </mxCell>
        <mxCell id="YrsGiOxKX0NgvEgix6KA-3" value="" style="shape=flexArrow;endArrow=classic;html=1;" edge="1" parent="1">
          <mxGeometry width="50" height="50" relative="1" as="geometry">
            <mxPoint x="139.5" y="120" as="sourcePoint" />
            <mxPoint x="140" y="160" as="targetPoint" />
          </mxGeometry>
        </mxCell>
        <mxCell id="YrsGiOxKX0NgvEgix6KA-4" value="" style="shape=flexArrow;endArrow=classic;html=1;" edge="1" parent="1">
          <mxGeometry width="50" height="50" relative="1" as="geometry">
            <mxPoint x="139.5" y="230" as="sourcePoint" />
            <mxPoint x="140" y="270" as="targetPoint" />
          </mxGeometry>
        </mxCell>
        <mxCell id="YrsGiOxKX0NgvEgix6KA-6" value="Informe a data do evento." style="shape=display;whiteSpace=wrap;html=1;" vertex="1" parent="1">
          <mxGeometry x="65" y="160" width="150" height="70" as="geometry" />
        </mxCell>
        <mxCell id="YrsGiOxKX0NgvEgix6KA-7" value="Data do evento." style="shape=manualInput;whiteSpace=wrap;html=1;" vertex="1" parent="1">
          <mxGeometry x="75" y="280" width="140" height="80" as="geometry" />
        </mxCell>
        <mxCell id="YrsGiOxKX0NgvEgix6KA-9" value="Data do evento é maior do que a data atual?" style="rhombus;whiteSpace=wrap;html=1;" vertex="1" parent="1">
          <mxGeometry x="65" y="400" width="150" height="140" as="geometry" />
        </mxCell>
        <mxCell id="YrsGiOxKX0NgvEgix6KA-10" value="" style="shape=flexArrow;endArrow=classic;html=1;" edge="1" parent="1">
          <mxGeometry width="50" height="50" relative="1" as="geometry">
            <mxPoint x="139.5" y="360" as="sourcePoint" />
            <mxPoint x="140" y="400" as="targetPoint" />
          </mxGeometry>
        </mxCell>
        <mxCell id="YrsGiOxKX0NgvEgix6KA-11" value="" style="shape=flexArrow;endArrow=classic;html=1;" edge="1" parent="1">
          <mxGeometry width="50" height="50" relative="1" as="geometry">
            <mxPoint x="215" y="469.5" as="sourcePoint" />
            <mxPoint x="265" y="469.5" as="targetPoint" />
          </mxGeometry>
        </mxCell>
        <mxCell id="YrsGiOxKX0NgvEgix6KA-12" value="&lt;span style=&quot;background-color: rgb(255 , 255 , 255)&quot;&gt;O cadastro não será permitido por data inválida.&lt;/span&gt;" style="shape=display;whiteSpace=wrap;html=1;" vertex="1" parent="1">
          <mxGeometry x="264" y="435" width="150" height="70" as="geometry" />
        </mxCell>
        <mxCell id="YrsGiOxKX0NgvEgix6KA-13" value="" style="shape=flexArrow;endArrow=classic;html=1;" edge="1" parent="1">
          <mxGeometry width="50" height="50" relative="1" as="geometry">
            <mxPoint x="139.5" y="540" as="sourcePoint" />
            <mxPoint x="140" y="580" as="targetPoint" />
          </mxGeometry>
        </mxCell>
        <mxCell id="YrsGiOxKX0NgvEgix6KA-15" value="Data válida." style="shape=manualInput;whiteSpace=wrap;html=1;" vertex="1" parent="1">
          <mxGeometry x="75" y="570" width="140" height="80" as="geometry" />
        </mxCell>
        <mxCell id="YrsGiOxKX0NgvEgix6KA-16" value="Informe sua idade." style="shape=display;whiteSpace=wrap;html=1;" vertex="1" parent="1">
          <mxGeometry x="65" y="690" width="150" height="70" as="geometry" />
        </mxCell>
        <mxCell id="YrsGiOxKX0NgvEgix6KA-17" value="" style="shape=flexArrow;endArrow=classic;html=1;" edge="1" parent="1">
          <mxGeometry width="50" height="50" relative="1" as="geometry">
            <mxPoint x="139.5" y="650" as="sourcePoint" />
            <mxPoint x="140" y="690" as="targetPoint" />
          </mxGeometry>
        </mxCell>
        <mxCell id="YrsGiOxKX0NgvEgix6KA-18" value="Idade." style="shape=manualInput;whiteSpace=wrap;html=1;" vertex="1" parent="1">
          <mxGeometry x="80" y="790" width="140" height="80" as="geometry" />
        </mxCell>
        <mxCell id="YrsGiOxKX0NgvEgix6KA-19" value="" style="shape=flexArrow;endArrow=classic;html=1;" edge="1" parent="1">
          <mxGeometry width="50" height="50" relative="1" as="geometry">
            <mxPoint x="139.5" y="760" as="sourcePoint" />
            <mxPoint x="140" y="800" as="targetPoint" />
          </mxGeometry>
        </mxCell>
        <mxCell id="YrsGiOxKX0NgvEgix6KA-20" value="A idade do interessado é maior do que 18 anos?" style="rhombus;whiteSpace=wrap;html=1;" vertex="1" parent="1">
          <mxGeometry x="65" y="910" width="150" height="140" as="geometry" />
        </mxCell>
        <mxCell id="YrsGiOxKX0NgvEgix6KA-21" value="" style="shape=flexArrow;endArrow=classic;html=1;" edge="1" parent="1">
          <mxGeometry width="50" height="50" relative="1" as="geometry">
            <mxPoint x="139.5" y="870" as="sourcePoint" />
            <mxPoint x="140" y="910" as="targetPoint" />
          </mxGeometry>
        </mxCell>
        <mxCell id="YrsGiOxKX0NgvEgix6KA-22" value="" style="shape=flexArrow;endArrow=classic;html=1;" edge="1" parent="1">
          <mxGeometry width="50" height="50" relative="1" as="geometry">
            <mxPoint x="215" y="979.5" as="sourcePoint" />
            <mxPoint x="265" y="979.5" as="targetPoint" />
          </mxGeometry>
        </mxCell>
        <mxCell id="YrsGiOxKX0NgvEgix6KA-23" value="&lt;span style=&quot;font-family: , , &amp;#34;sf mono&amp;#34; , &amp;#34;menlo&amp;#34; , &amp;#34;consolas&amp;#34; , &amp;#34;liberation mono&amp;#34; , monospace ; background-color: rgb(255 , 255 , 255)&quot;&gt;O evento não é permitido para menores de idade.&lt;/span&gt;" style="shape=display;whiteSpace=wrap;html=1;" vertex="1" parent="1">
          <mxGeometry x="65" y="1090" width="150" height="70" as="geometry" />
        </mxCell>
        <mxCell id="YrsGiOxKX0NgvEgix6KA-24" value="" style="shape=flexArrow;endArrow=classic;html=1;" edge="1" parent="1">
          <mxGeometry width="50" height="50" relative="1" as="geometry">
            <mxPoint x="139.5" y="1050" as="sourcePoint" />
            <mxPoint x="140" y="1090" as="targetPoint" />
          </mxGeometry>
        </mxCell>
        <mxCell id="YrsGiOxKX0NgvEgix6KA-25" value="Maior de 18 anos." style="shape=manualInput;whiteSpace=wrap;html=1;" vertex="1" parent="1">
          <mxGeometry x="264" y="930" width="140" height="80" as="geometry" />
        </mxCell>
        <mxCell id="YrsGiOxKX0NgvEgix6KA-26" value="" style="shape=flexArrow;endArrow=classic;html=1;" edge="1" parent="1">
          <mxGeometry width="50" height="50" relative="1" as="geometry">
            <mxPoint x="404" y="979.5" as="sourcePoint" />
            <mxPoint x="470" y="979" as="targetPoint" />
          </mxGeometry>
        </mxCell>
        <mxCell id="YrsGiOxKX0NgvEgix6KA-27" value="Lista de Participantes (n)." style="shape=manualInput;whiteSpace=wrap;html=1;" vertex="1" parent="1">
          <mxGeometry x="470" y="930" width="140" height="80" as="geometry" />
        </mxCell>
        <mxCell id="YrsGiOxKX0NgvEgix6KA-28" value="" style="shape=flexArrow;endArrow=classic;html=1;" edge="1" parent="1">
          <mxGeometry width="50" height="50" relative="1" as="geometry">
            <mxPoint x="539.5" y="940" as="sourcePoint" />
            <mxPoint x="540.5" y="900" as="targetPoint" />
          </mxGeometry>
        </mxCell>
        <mxCell id="YrsGiOxKX0NgvEgix6KA-32" value="n é menor do que 100?" style="rhombus;whiteSpace=wrap;html=1;" vertex="1" parent="1">
          <mxGeometry x="465" y="750" width="150" height="140" as="geometry" />
        </mxCell>
        <mxCell id="YrsGiOxKX0NgvEgix6KA-33" value="" style="shape=flexArrow;endArrow=classic;html=1;" edge="1" parent="1">
          <mxGeometry width="50" height="50" relative="1" as="geometry">
            <mxPoint x="539.5" y="750" as="sourcePoint" />
            <mxPoint x="540.5" y="710" as="targetPoint" />
          </mxGeometry>
        </mxCell>
        <mxCell id="YrsGiOxKX0NgvEgix6KA-34" value="Cadastrado." style="shape=display;whiteSpace=wrap;html=1;" vertex="1" parent="1">
          <mxGeometry x="460" y="640" width="150" height="70" as="geometry" />
        </mxCell>
        <mxCell id="YrsGiOxKX0NgvEgix6KA-35" value="" style="shape=flexArrow;endArrow=classic;html=1;" edge="1" parent="1">
          <mxGeometry width="50" height="50" relative="1" as="geometry">
            <mxPoint x="615" y="819.5" as="sourcePoint" />
            <mxPoint x="665" y="819.5" as="targetPoint" />
          </mxGeometry>
        </mxCell>
        <mxCell id="YrsGiOxKX0NgvEgix6KA-36" value="&lt;span style=&quot;background-color: rgb(255 , 255 , 255)&quot;&gt;O cadastro não é permitido, pois o limite de participantes foi excedido.&lt;/span&gt;" style="shape=display;whiteSpace=wrap;html=1;" vertex="1" parent="1">
          <mxGeometry x="670" y="785" width="150" height="70" as="geometry" />
        </mxCell>
        <mxCell id="YrsGiOxKX0NgvEgix6KA-37" value="&lt;b&gt;&lt;font style=&quot;font-size: 20px&quot;&gt;FIM&lt;/font&gt;&lt;/b&gt;" style="ellipse;whiteSpace=wrap;html=1;" vertex="1" parent="1">
          <mxGeometry x="480" y="520" width="120" height="80" as="geometry" />
        </mxCell>
        <mxCell id="YrsGiOxKX0NgvEgix6KA-38" value="" style="shape=flexArrow;endArrow=classic;html=1;" edge="1" parent="1">
          <mxGeometry width="50" height="50" relative="1" as="geometry">
            <mxPoint x="539.41" y="640" as="sourcePoint" />
            <mxPoint x="540.4099999999997" y="600" as="targetPoint" />
          </mxGeometry>
        </mxCell>
      </root>
    </mxGraphModel>
  </diagram>
</mxfile>
